<svg xmlns="http://www.w3.org/2000/svg" width="390" height="440" viewBox="0 0 390 440">
<rect x="0" y="0" width="390" height="304" fill="#F4E4BC"/>
<circle cx="11" cy="11" r="1.6" fill="#E9D3A2"/><circle cx="33" cy="11" r="1.6" fill="#E9D3A2"/><circle cx="55" cy="11" r="1.6" fill="#E9D3A2"/><circle cx="77" cy="11" r="1.6" fill="#E9D3A2"/><circle cx="99" cy="11" r="1.6" fill="#E9D3A2"/><circle cx="121" cy="11" r="1.6" fill="#E9D3A2"/><circle cx="143" cy="11" r="1.6" fill="#E9D3A2"/><circle cx="165" cy="11" r="1.6" fill="#E9D3A2"/><circle cx="187" cy="11" r="1.6" fill="#E9D3A2"/><circle cx="209" cy="11" r="1.6" fill="#E9D3A2"/><circle cx="231" cy="11" r="1.6" fill="#E9D3A2"/><circle cx="253" cy="11" r="1.6" fill="#E9D3A2"/><circle cx="275" cy="11" r="1.6" fill="#E9D3A2"/><circle cx="297" cy="11" r="1.6" fill="#E9D3A2"/><circle cx="319" cy="11" r="1.6" fill="#E9D3A2"/><circle cx="341" cy="11" r="1.6" fill="#E9D3A2"/><circle cx="363" cy="11" r="1.6" fill="#E9D3A2"/><circle cx="385" cy="11" r="1.6" fill="#E9D3A2"/><circle cx="11" cy="33" r="1.6" fill="#E9D3A2"/><circle cx="33" cy="33" r="1.6" fill="#E9D3A2"/><circle cx="55" cy="33" r="1.6" fill="#E9D3A2"/><circle cx="77" cy="33" r="1.6" fill="#E9D3A2"/><circle cx="99" cy="33" r="1.6" fill="#E9D3A2"/><circle cx="121" cy="33" r="1.6" fill="#E9D3A2"/><circle cx="143" cy="33" r="1.6" fill="#E9D3A2"/><circle cx="165" cy="33" r="1.6" fill="#E9D3A2"/><circle cx="187" cy="33" r="1.6" fill="#E9D3A2"/><circle cx="209" cy="33" r="1.6" fill="#E9D3A2"/><circle cx="231" cy="33" r="1.6" fill="#E9D3A2"/><circle cx="253" cy="33" r="1.6" fill="#E9D3A2"/><circle cx="275" cy="33" r="1.6" fill="#E9D3A2"/><circle cx="297" cy="33" r="1.6" fill="#E9D3A2"/><circle cx="319" cy="33" r="1.6" fill="#E9D3A2"/><circle cx="341" cy="33" r="1.6" fill="#E9D3A2"/><circle cx="363" cy="33" r="1.6" fill="#E9D3A2"/><circle cx="385" cy="33" r="1.6" fill="#E9D3A2"/><circle cx="11" cy="55" r="1.6" fill="#E9D3A2"/><circle cx="33" cy="55" r="1.6" fill="#E9D3A2"/><circle cx="55" cy="55" r="1.6" fill="#E9D3A2"/><circle cx="77" cy="55" r="1.6" fill="#E9D3A2"/><circle cx="99" cy="55" r="1.6" fill="#E9D3A2"/><circle cx="121" cy="55" r="1.6" fill="#E9D3A2"/><circle cx="143" cy="55" r="1.6" fill="#E9D3A2"/><circle cx="165" cy="55" r="1.6" fill="#E9D3A2"/><circle cx="187" cy="55" r="1.6" fill="#E9D3A2"/><circle cx="209" cy="55" r="1.6" fill="#E9D3A2"/><circle cx="231" cy="55" r="1.6" fill="#E9D3A2"/><circle cx="253" cy="55" r="1.6" fill="#E9D3A2"/><circle cx="275" cy="55" r="1.6" fill="#E9D3A2"/><circle cx="297" cy="55" r="1.6" fill="#E9D3A2"/><circle cx="319" cy="55" r="1.6" fill="#E9D3A2"/><circle cx="341" cy="55" r="1.6" fill="#E9D3A2"/><circle cx="363" cy="55" r="1.6" fill="#E9D3A2"/><circle cx="385" cy="55" r="1.6" fill="#E9D3A2"/><circle cx="11" cy="77" r="1.6" fill="#E9D3A2"/><circle cx="33" cy="77" r="1.6" fill="#E9D3A2"/><circle cx="55" cy="77" r="1.6" fill="#E9D3A2"/><circle cx="77" cy="77" r="1.6" fill="#E9D3A2"/><circle cx="99" cy="77" r="1.6" fill="#E9D3A2"/><circle cx="121" cy="77" r="1.6" fill="#E9D3A2"/><circle cx="143" cy="77" r="1.6" fill="#E9D3A2"/><circle cx="165" cy="77" r="1.6" fill="#E9D3A2"/><circle cx="187" cy="77" r="1.6" fill="#E9D3A2"/><circle cx="209" cy="77" r="1.6" fill="#E9D3A2"/><circle cx="231" cy="77" r="1.6" fill="#E9D3A2"/><circle cx="253" cy="77" r="1.6" fill="#E9D3A2"/><circle cx="275" cy="77" r="1.6" fill="#E9D3A2"/><circle cx="297" cy="77" r="1.6" fill="#E9D3A2"/><circle cx="319" cy="77" r="1.6" fill="#E9D3A2"/><circle cx="341" cy="77" r="1.6" fill="#E9D3A2"/><circle cx="363" cy="77" r="1.6" fill="#E9D3A2"/><circle cx="385" cy="77" r="1.6" fill="#E9D3A2"/><circle cx="11" cy="99" r="1.6" fill="#E9D3A2"/><circle cx="33" cy="99" r="1.6" fill="#E9D3A2"/><circle cx="55" cy="99" r="1.6" fill="#E9D3A2"/><circle cx="77" cy="99" r="1.6" fill="#E9D3A2"/><circle cx="99" cy="99" r="1.6" fill="#E9D3A2"/><circle cx="121" cy="99" r="1.6" fill="#E9D3A2"/><circle cx="143" cy="99" r="1.6" fill="#E9D3A2"/><circle cx="165" cy="99" r="1.6" fill="#E9D3A2"/><circle cx="187" cy="99" r="1.6" fill="#E9D3A2"/><circle cx="209" cy="99" r="1.6" fill="#E9D3A2"/><circle cx="231" cy="99" r="1.6" fill="#E9D3A2"/><circle cx="253" cy="99" r="1.6" fill="#E9D3A2"/><circle cx="275" cy="99" r="1.6" fill="#E9D3A2"/><circle cx="297" cy="99" r="1.6" fill="#E9D3A2"/><circle cx="319" cy="99" r="1.6" fill="#E9D3A2"/><circle cx="341" cy="99" r="1.6" fill="#E9D3A2"/><circle cx="363" cy="99" r="1.6" fill="#E9D3A2"/><circle cx="385" cy="99" r="1.6" fill="#E9D3A2"/><circle cx="11" cy="121" r="1.6" fill="#E9D3A2"/><circle cx="33" cy="121" r="1.6" fill="#E9D3A2"/><circle cx="55" cy="121" r="1.6" fill="#E9D3A2"/><circle cx="77" cy="121" r="1.6" fill="#E9D3A2"/><circle cx="99" cy="121" r="1.6" fill="#E9D3A2"/><circle cx="121" cy="121" r="1.6" fill="#E9D3A2"/><circle cx="143" cy="121" r="1.6" fill="#E9D3A2"/><circle cx="165" cy="121" r="1.6" fill="#E9D3A2"/><circle cx="187" cy="121" r="1.6" fill="#E9D3A2"/><circle cx="209" cy="121" r="1.6" fill="#E9D3A2"/><circle cx="231" cy="121" r="1.6" fill="#E9D3A2"/><circle cx="253" cy="121" r="1.6" fill="#E9D3A2"/><circle cx="275" cy="121" r="1.6" fill="#E9D3A2"/><circle cx="297" cy="121" r="1.6" fill="#E9D3A2"/><circle cx="319" cy="121" r="1.6" fill="#E9D3A2"/><circle cx="341" cy="121" r="1.6" fill="#E9D3A2"/><circle cx="363" cy="121" r="1.6" fill="#E9D3A2"/><circle cx="385" cy="121" r="1.6" fill="#E9D3A2"/><circle cx="11" cy="143" r="1.6" fill="#E9D3A2"/><circle cx="33" cy="143" r="1.6" fill="#E9D3A2"/><circle cx="55" cy="143" r="1.6" fill="#E9D3A2"/><circle cx="77" cy="143" r="1.6" fill="#E9D3A2"/><circle cx="99" cy="143" r="1.6" fill="#E9D3A2"/><circle cx="121" cy="143" r="1.6" fill="#E9D3A2"/><circle cx="143" cy="143" r="1.6" fill="#E9D3A2"/><circle cx="165" cy="143" r="1.6" fill="#E9D3A2"/><circle cx="187" cy="143" r="1.6" fill="#E9D3A2"/><circle cx="209" cy="143" r="1.6" fill="#E9D3A2"/><circle cx="231" cy="143" r="1.6" fill="#E9D3A2"/><circle cx="253" cy="143" r="1.6" fill="#E9D3A2"/><circle cx="275" cy="143" r="1.6" fill="#E9D3A2"/><circle cx="297" cy="143" r="1.6" fill="#E9D3A2"/><circle cx="319" cy="143" r="1.6" fill="#E9D3A2"/><circle cx="341" cy="143" r="1.6" fill="#E9D3A2"/><circle cx="363" cy="143" r="1.6" fill="#E9D3A2"/><circle cx="385" cy="143" r="1.6" fill="#E9D3A2"/><circle cx="11" cy="165" r="1.6" fill="#E9D3A2"/><circle cx="33" cy="165" r="1.6" fill="#E9D3A2"/><circle cx="55" cy="165" r="1.6" fill="#E9D3A2"/><circle cx="77" cy="165" r="1.6" fill="#E9D3A2"/><circle cx="99" cy="165" r="1.6" fill="#E9D3A2"/><circle cx="121" cy="165" r="1.6" fill="#E9D3A2"/><circle cx="143" cy="165" r="1.6" fill="#E9D3A2"/><circle cx="165" cy="165" r="1.6" fill="#E9D3A2"/><circle cx="187" cy="165" r="1.6" fill="#E9D3A2"/><circle cx="209" cy="165" r="1.6" fill="#E9D3A2"/><circle cx="231" cy="165" r="1.6" fill="#E9D3A2"/><circle cx="253" cy="165" r="1.6" fill="#E9D3A2"/><circle cx="275" cy="165" r="1.6" fill="#E9D3A2"/><circle cx="297" cy="165" r="1.6" fill="#E9D3A2"/><circle cx="319" cy="165" r="1.6" fill="#E9D3A2"/><circle cx="341" cy="165" r="1.6" fill="#E9D3A2"/><circle cx="363" cy="165" r="1.6" fill="#E9D3A2"/><circle cx="385" cy="165" r="1.6" fill="#E9D3A2"/><circle cx="11" cy="187" r="1.6" fill="#E9D3A2"/><circle cx="33" cy="187" r="1.6" fill="#E9D3A2"/><circle cx="55" cy="187" r="1.6" fill="#E9D3A2"/><circle cx="77" cy="187" r="1.6" fill="#E9D3A2"/><circle cx="99" cy="187" r="1.6" fill="#E9D3A2"/><circle cx="121" cy="187" r="1.6" fill="#E9D3A2"/><circle cx="143" cy="187" r="1.6" fill="#E9D3A2"/><circle cx="165" cy="187" r="1.6" fill="#E9D3A2"/><circle cx="187" cy="187" r="1.6" fill="#E9D3A2"/><circle cx="209" cy="187" r="1.6" fill="#E9D3A2"/><circle cx="231" cy="187" r="1.6" fill="#E9D3A2"/><circle cx="253" cy="187" r="1.6" fill="#E9D3A2"/><circle cx="275" cy="187" r="1.6" fill="#E9D3A2"/><circle cx="297" cy="187" r="1.6" fill="#E9D3A2"/><circle cx="319" cy="187" r="1.6" fill="#E9D3A2"/><circle cx="341" cy="187" r="1.6" fill="#E9D3A2"/><circle cx="363" cy="187" r="1.6" fill="#E9D3A2"/><circle cx="385" cy="187" r="1.6" fill="#E9D3A2"/><circle cx="11" cy="209" r="1.6" fill="#E9D3A2"/><circle cx="33" cy="209" r="1.6" fill="#E9D3A2"/><circle cx="55" cy="209" r="1.6" fill="#E9D3A2"/><circle cx="77" cy="209" r="1.6" fill="#E9D3A2"/><circle cx="99" cy="209" r="1.6" fill="#E9D3A2"/><circle cx="121" cy="209" r="1.6" fill="#E9D3A2"/><circle cx="143" cy="209" r="1.6" fill="#E9D3A2"/><circle cx="165" cy="209" r="1.6" fill="#E9D3A2"/><circle cx="187" cy="209" r="1.6" fill="#E9D3A2"/><circle cx="209" cy="209" r="1.6" fill="#E9D3A2"/><circle cx="231" cy="209" r="1.6" fill="#E9D3A2"/><circle cx="253" cy="209" r="1.6" fill="#E9D3A2"/><circle cx="275" cy="209" r="1.6" fill="#E9D3A2"/><circle cx="297" cy="209" r="1.6" fill="#E9D3A2"/><circle cx="319" cy="209" r="1.6" fill="#E9D3A2"/><circle cx="341" cy="209" r="1.6" fill="#E9D3A2"/><circle cx="363" cy="209" r="1.6" fill="#E9D3A2"/><circle cx="385" cy="209" r="1.6" fill="#E9D3A2"/><circle cx="11" cy="231" r="1.6" fill="#E9D3A2"/><circle cx="33" cy="231" r="1.6" fill="#E9D3A2"/><circle cx="55" cy="231" r="1.6" fill="#E9D3A2"/><circle cx="77" cy="231" r="1.6" fill="#E9D3A2"/><circle cx="99" cy="231" r="1.6" fill="#E9D3A2"/><circle cx="121" cy="231" r="1.6" fill="#E9D3A2"/><circle cx="143" cy="231" r="1.6" fill="#E9D3A2"/><circle cx="165" cy="231" r="1.6" fill="#E9D3A2"/><circle cx="187" cy="231" r="1.6" fill="#E9D3A2"/><circle cx="209" cy="231" r="1.6" fill="#E9D3A2"/><circle cx="231" cy="231" r="1.6" fill="#E9D3A2"/><circle cx="253" cy="231" r="1.6" fill="#E9D3A2"/><circle cx="275" cy="231" r="1.6" fill="#E9D3A2"/><circle cx="297" cy="231" r="1.6" fill="#E9D3A2"/><circle cx="319" cy="231" r="1.6" fill="#E9D3A2"/><circle cx="341" cy="231" r="1.6" fill="#E9D3A2"/><circle cx="363" cy="231" r="1.6" fill="#E9D3A2"/><circle cx="385" cy="231" r="1.6" fill="#E9D3A2"/><circle cx="11" cy="253" r="1.6" fill="#E9D3A2"/><circle cx="33" cy="253" r="1.6" fill="#E9D3A2"/><circle cx="55" cy="253" r="1.6" fill="#E9D3A2"/><circle cx="77" cy="253" r="1.6" fill="#E9D3A2"/><circle cx="99" cy="253" r="1.6" fill="#E9D3A2"/><circle cx="121" cy="253" r="1.6" fill="#E9D3A2"/><circle cx="143" cy="253" r="1.6" fill="#E9D3A2"/><circle cx="165" cy="253" r="1.6" fill="#E9D3A2"/><circle cx="187" cy="253" r="1.6" fill="#E9D3A2"/><circle cx="209" cy="253" r="1.6" fill="#E9D3A2"/><circle cx="231" cy="253" r="1.6" fill="#E9D3A2"/><circle cx="253" cy="253" r="1.6" fill="#E9D3A2"/><circle cx="275" cy="253" r="1.6" fill="#E9D3A2"/><circle cx="297" cy="253" r="1.6" fill="#E9D3A2"/><circle cx="319" cy="253" r="1.6" fill="#E9D3A2"/><circle cx="341" cy="253" r="1.6" fill="#E9D3A2"/><circle cx="363" cy="253" r="1.6" fill="#E9D3A2"/><circle cx="385" cy="253" r="1.6" fill="#E9D3A2"/><circle cx="11" cy="275" r="1.6" fill="#E9D3A2"/><circle cx="33" cy="275" r="1.6" fill="#E9D3A2"/><circle cx="55" cy="275" r="1.6" fill="#E9D3A2"/><circle cx="77" cy="275" r="1.6" fill="#E9D3A2"/><circle cx="99" cy="275" r="1.6" fill="#E9D3A2"/><circle cx="121" cy="275" r="1.6" fill="#E9D3A2"/><circle cx="143" cy="275" r="1.6" fill="#E9D3A2"/><circle cx="165" cy="275" r="1.6" fill="#E9D3A2"/><circle cx="187" cy="275" r="1.6" fill="#E9D3A2"/><circle cx="209" cy="275" r="1.6" fill="#E9D3A2"/><circle cx="231" cy="275" r="1.6" fill="#E9D3A2"/><circle cx="253" cy="275" r="1.6" fill="#E9D3A2"/><circle cx="275" cy="275" r="1.6" fill="#E9D3A2"/><circle cx="297" cy="275" r="1.6" fill="#E9D3A2"/><circle cx="319" cy="275" r="1.6" fill="#E9D3A2"/><circle cx="341" cy="275" r="1.6" fill="#E9D3A2"/><circle cx="363" cy="275" r="1.6" fill="#E9D3A2"/><circle cx="385" cy="275" r="1.6" fill="#E9D3A2"/><circle cx="11" cy="297" r="1.6" fill="#E9D3A2"/><circle cx="33" cy="297" r="1.6" fill="#E9D3A2"/><circle cx="55" cy="297" r="1.6" fill="#E9D3A2"/><circle cx="77" cy="297" r="1.6" fill="#E9D3A2"/><circle cx="99" cy="297" r="1.6" fill="#E9D3A2"/><circle cx="121" cy="297" r="1.6" fill="#E9D3A2"/><circle cx="143" cy="297" r="1.6" fill="#E9D3A2"/><circle cx="165" cy="297" r="1.6" fill="#E9D3A2"/><circle cx="187" cy="297" r="1.6" fill="#E9D3A2"/><circle cx="209" cy="297" r="1.6" fill="#E9D3A2"/><circle cx="231" cy="297" r="1.6" fill="#E9D3A2"/><circle cx="253" cy="297" r="1.6" fill="#E9D3A2"/><circle cx="275" cy="297" r="1.6" fill="#E9D3A2"/><circle cx="297" cy="297" r="1.6" fill="#E9D3A2"/><circle cx="319" cy="297" r="1.6" fill="#E9D3A2"/><circle cx="341" cy="297" r="1.6" fill="#E9D3A2"/><circle cx="363" cy="297" r="1.6" fill="#E9D3A2"/><circle cx="385" cy="297" r="1.6" fill="#E9D3A2"/>
<rect x="0" y="296" width="390" height="10" fill="#EAD2A3" stroke="#5A3A26" stroke-width="2"/>
<rect x="0" y="306" width="390" height="134" fill="#DFB077"/>
<path d="M0 340 H390 M0 378 H390 M0 416 H390" stroke="#CF9D63" stroke-width="2"/>
<path d="M90 306 V340 M220 340 V378 M140 378 V416 M300 306 V340 M330 378 V416 M40 416 V440 M260 416 V440" stroke="#CF9D63" stroke-width="2"/>
<path d="M44 196 V122 A58 58 0 0 1 160 122 V196 Z" fill="#SKY000" stroke="#5A3A26" stroke-width="3"/>
<circle cx="128" cy="SUNY" r="15" fill="#SUN000"/>
<path d="M60 168 q12 -14 26 -4 q8 -10 20 -2 q10 -2 12 6 z" fill="#CLOUD0"/>
<path d="M102 66 V196 M44 140 H160" stroke="#5A3A26" stroke-width="3"/>
<rect x="36" y="194" width="132" height="10" rx="4" fill="#FBF1DE" stroke="#5A3A26" stroke-width="2.5"/>
<rect x="232" y="78" width="74" height="58" rx="4" fill="#FBF1DE" stroke="#5A3A26" stroke-width="2.5"/>
<path d="M240 128 l18 -22 l12 12 l10 -10 l18 20 z" fill="#E8B87A" stroke="#5A3A26" stroke-width="2" stroke-linejoin="round"/>
<circle cx="288" cy="96" r="6" fill="#E8735A"/>
<ellipse cx="352" cy="160" rx="64" ry="54" fill="#FFE3A0" opacity="GLOW"/>
<path d="M352 150 V318" stroke="#5A3A26" stroke-width="3"/>
<ellipse cx="352" cy="320" rx="16" ry="5" fill="#5A3A26"/>
<path d="M330 150 L338 116 H366 L374 150 Z" fill="#FBF1DE" stroke="#5A3A26" stroke-width="2.5" stroke-linejoin="round"/>
<path d="M22 306 L28 270 H58 L64 306 Z" fill="#C9774A" stroke="#5A3A26" stroke-width="2.5" stroke-linejoin="round"/>
<path d="M43 270 C30 250 18 236 14 214 C30 222 40 238 43 262 M43 270 C46 244 54 226 70 214 C70 236 58 254 43 270 M43 268 C40 240 42 218 44 196 C54 216 52 244 43 268" fill="#7E9C77" stroke="#5A3A26" stroke-width="2" stroke-linejoin="round"/>
<ellipse cx="195" cy="398" rx="172" ry="30" fill="#E9A6A0" stroke="#5A3A26" stroke-width="2.5"/>
<ellipse cx="195" cy="398" rx="140" ry="20" fill="none" stroke="#F4C9C2" stroke-width="3"/>
<rect x="56" y="214" width="278" height="104" rx="34" fill="#93AC8C" stroke="#5A3A26" stroke-width="3"/>
<path d="M90 236 q30 10 62 0 M238 236 q30 10 62 0" stroke="#7F9879" stroke-width="3" fill="none" stroke-linecap="round"/>
<rect x="74" y="294" width="242" height="44" rx="16" fill="#A3BB9B" stroke="#5A3A26" stroke-width="3"/>
<rect x="84" y="344" width="10" height="16" rx="3" fill="#5A3A26"/>
<rect x="296" y="344" width="10" height="16" rx="3" fill="#5A3A26"/>
</svg>